<svg width="2333" height="2369" xmlns="http://www.w3.org/2000/svg" xmlns:xlink="http://www.w3.org/1999/xlink" xml:space="preserve" overflow="hidden"><g transform="translate(-458 -476)"><path d="M1973.5 1538.02C1973.5 1532.76 1977.76 1528.5 1983.02 1528.5L2088.98 1528.5C2094.24 1528.5 2098.5 1532.76 2098.5 1538.02L2098.5 2127.98C2098.5 2133.24 2094.24 2137.5 2088.98 2137.5L1983.02 2137.5C1977.76 2137.5 1973.5 2133.24 1973.5 2127.98Z" stroke="#FFFFFF" stroke-width="55" stroke-miterlimit="8" fill="#FFFFFF" fill-rule="evenodd"/><path d="M2110.5 1333.94C2110.5 1328.73 2114.73 1324.5 2119.94 1324.5L2225.06 1324.5C2230.27 1324.5 2234.5 1328.73 2234.5 1333.94L2234.5 2128.06C2234.5 2133.27 2230.27 2137.5 2225.06 2137.5L2119.94 2137.5C2114.73 2137.5 2110.5 2133.27 2110.5 2128.06Z" stroke="#FFFFFF" stroke-width="55" stroke-miterlimit="8" fill="#FFFFFF" fill-rule="evenodd"/><path d="M2242.5 1594.96C2242.5 1594.71 2242.71 1594.5 2242.96 1594.5L2366.04 1594.5C2366.29 1594.5 2366.5 1594.71 2366.5 1594.96L2366.5 2137.04C2366.5 2137.29 2366.29 2137.5 2366.04 2137.5L2242.96 2137.5C2242.71 2137.5 2242.5 2137.29 2242.5 2137.04Z" stroke="#FFFFFF" stroke-width="55" stroke-miterlimit="8" fill="#FFFFFF" fill-rule="evenodd"/><path d="M1387.5 644.545C1387.5 642.863 1388.86 641.5 1390.54 641.5L1819.46 641.5C1821.14 641.5 1822.5 642.863 1822.5 644.545L1822.5 2134.46C1822.5 2136.14 1821.14 2137.5 1819.46 2137.5L1390.54 2137.5C1388.86 2137.5 1387.5 2136.14 1387.5 2134.46Z" stroke="#FFFFFF" stroke-width="55" stroke-miterlimit="8" fill="#FFFFFF" fill-rule="evenodd"/><path d="M873.5 1115.5 873.5 2137.22" stroke="#FFFFFF" stroke-width="55" stroke-linecap="round" stroke-miterlimit="8" fill="none" fill-rule="evenodd"/><path d="M1229.5 1115.5 1229.5 2137.22" stroke="#FFFFFF" stroke-width="55" stroke-linecap="round" stroke-miterlimit="8" fill="none" fill-rule="evenodd"/><path d="M0 0 236.545 0.000360892" stroke="#FFFFFF" stroke-width="55" stroke-linecap="round" stroke-miterlimit="8" fill="none" fill-rule="evenodd" transform="matrix(-1 0 0 1 1170.05 1021.5)"/><path d="M0 0 2272.7 0.000360892" stroke="#FFFFFF" stroke-width="59.5833" stroke-linecap="round" stroke-miterlimit="8" fill="none" fill-rule="evenodd" transform="matrix(-1 0 0 1 2760.7 2160)"/><path d="M1682.5 1000.5 1682.5 2111.68" stroke="#FFFFFF" stroke-width="55" stroke-linecap="round" stroke-miterlimit="8" fill="none" fill-rule="evenodd"/><path d="M1527.5 877.5 1527.5 2111.18" stroke="#FFFFFF" stroke-width="55" stroke-linecap="round" stroke-miterlimit="8" fill="none" fill-rule="evenodd"/><path d="M0 0 177.72 0.000360892" stroke="#FFFFFF" stroke-width="55" stroke-linecap="round" stroke-miterlimit="8" fill="none" fill-rule="evenodd" transform="matrix(-1 0 0 1 1699.22 503.5)"/><path d="M0 0 0.000360892 93.347" stroke="#FFFFFF" stroke-width="55" stroke-linecap="round" stroke-miterlimit="8" fill="none" fill-rule="evenodd" transform="matrix(1 0 0 -1 1521.5 596.847)"/><rect x="958.5" y="1157.5" width="63.0002" height="68.0001" stroke="#FFFFFF" stroke-width="55" stroke-linecap="round" stroke-miterlimit="8" fill="#FFFFFF"/><rect x="1077.5" y="1157.5" width="62.9999" height="68.0001" stroke="#FFFFFF" stroke-width="55" stroke-linecap="round" stroke-miterlimit="8" fill="#FFFFFF"/><rect x="958.5" y="1279.5" width="63.0002" height="69.0001" stroke="#FFFFFF" stroke-width="55" stroke-linecap="round" stroke-miterlimit="8" fill="#FFFFFF"/><rect x="1077.5" y="1279.5" width="62.9999" height="69.0001" stroke="#FFFFFF" stroke-width="55" stroke-linecap="round" stroke-miterlimit="8" fill="#FFFFFF"/><rect x="958.5" y="1400.5" width="63.0002" height="68.0001" stroke="#FFFFFF" stroke-width="55" stroke-linecap="round" stroke-miterlimit="8" fill="#FFFFFF"/><rect x="1077.5" y="1400.5" width="62.9999" height="68.0001" stroke="#FFFFFF" stroke-width="55" stroke-linecap="round" stroke-miterlimit="8" fill="#FFFFFF"/><rect x="958.5" y="1524.5" width="63.0002" height="69.0001" stroke="#FFFFFF" stroke-width="55" stroke-linecap="round" stroke-miterlimit="8" fill="#FFFFFF"/><rect x="1077.5" y="1524.5" width="62.9999" height="69.0001" stroke="#FFFFFF" stroke-width="55" stroke-linecap="round" stroke-miterlimit="8" fill="#FFFFFF"/><rect x="958.5" y="1646.5" width="63.0002" height="69.0001" stroke="#FFFFFF" stroke-width="55" stroke-linecap="round" stroke-miterlimit="8" fill="#FFFFFF"/><rect x="1077.5" y="1646.5" width="62.9999" height="69.0001" stroke="#FFFFFF" stroke-width="55" stroke-linecap="round" stroke-miterlimit="8" fill="#FFFFFF"/><rect x="958.5" y="1767.5" width="63.0002" height="69.0001" stroke="#FFFFFF" stroke-width="55" stroke-linecap="round" stroke-miterlimit="8" fill="#FFFFFF"/><rect x="1077.5" y="1767.5" width="62.9999" height="69.0001" stroke="#FFFFFF" stroke-width="55" stroke-linecap="round" stroke-miterlimit="8" fill="#FFFFFF"/><rect x="958.5" y="1887.5" width="63.0002" height="68.0001" stroke="#FFFFFF" stroke-width="55" stroke-linecap="round" stroke-miterlimit="8" fill="#FFFFFF"/><rect x="1077.5" y="1887.5" width="62.9999" height="68.0001" stroke="#FFFFFF" stroke-width="55" stroke-linecap="round" stroke-miterlimit="8" fill="#FFFFFF"/><rect x="958.5" y="2007.5" width="63.0002" height="69" stroke="#FFFFFF" stroke-width="55" stroke-linecap="round" stroke-miterlimit="8" fill="#FFFFFF"/><rect x="1077.5" y="2007.5" width="62.9999" height="69" stroke="#FFFFFF" stroke-width="55" stroke-linecap="round" stroke-miterlimit="8" fill="#FFFFFF"/><rect x="1487.5" y="726.5" width="76" height="69.0001" stroke="#FFFFFF" stroke-width="55" stroke-linecap="round" stroke-miterlimit="8" fill="#FFFFFF"/><rect x="1644.5" y="726.5" width="76" height="69.0001" stroke="#FFFFFF" stroke-width="55" stroke-linecap="round" stroke-miterlimit="8" fill="#FFFFFF"/><rect x="1644.5" y="844.5" width="76" height="68.9998" stroke="#FFFFFF" stroke-width="55" stroke-linecap="round" stroke-miterlimit="8" fill="#FFFFFF"/><rect x="488.5" y="2248.5" width="2272" height="496" stroke="#FFFFFF" stroke-width="3.4375" stroke-linejoin="round" stroke-miterlimit="10" fill="#FFFFFF"/><text fill="#FFFFFF" font-family="Tenorite Display,Tenorite Display_MSFontService,sans-serif" font-weight="700" font-size="303" transform="matrix(1 0 0 1 753.728 2437)">WERTHEIMER</text><text fill="#FFFFFF" font-family="Tenorite Display,Tenorite Display_MSFontService,sans-serif" font-weight="700" font-size="202" transform="matrix(1 0 0 1 850.895 2674)">DIGITAL SERVICES</text><path d="M1985.5 836.5C1985.5 728.804 2072.8 641.5 2180.5 641.5 2288.2 641.5 2375.5 728.804 2375.5 836.5 2375.5 944.196 2288.2 1031.5 2180.5 1031.5 2072.8 1031.5 1985.5 944.196 1985.5 836.5Z" stroke="#FFFFFF" stroke-width="4.58333" stroke-miterlimit="8" fill="#FFFFFF" fill-rule="evenodd"/><path d="M2332.32 722.178 2005.75 926.242C1997.17 931.609 1994.08 942.164 1998.86 949.818L2068.14 1060.69C2072.92 1068.34 2083.76 1070.2 2092.35 1064.83L2418.92 860.765C2427.51 855.398 2430.6 844.843 2425.81 837.189L2356.54 726.319C2351.75 718.666 2340.91 716.811 2332.32 722.178ZM2191.97 843.604 2215.3 829.028 2228.29 849.816 2204.96 864.392ZM2213.62 878.251 2236.95 863.675 2249.94 884.463 2226.61 899.039ZM2153.09 867.897 2176.42 853.322 2189.41 874.109 2166.08 888.686ZM2174.74 902.544 2198.07 887.968 2211.06 908.756 2187.73 923.332ZM2114.21 892.191 2137.54 877.615 2150.53 898.403 2127.2 912.979ZM2135.86 926.838 2159.19 912.262 2172.18 933.05 2148.85 947.626ZM2116.08 1016.28 2092.75 1030.86 2079.76 1010.07 2103.09 995.495ZM2094.43 981.636 2071.1 996.212 2058.11 975.424 2081.44 960.848ZM2072.78 946.989 2049.45 961.565 2036.46 940.777 2059.79 926.201ZM2154.95 991.99 2131.63 1006.57 2118.64 985.778 2141.96 971.202ZM2133.3 957.343 2109.98 971.919 2096.99 951.131 2120.31 936.555ZM2111.65 922.696 2088.33 937.272 2075.34 916.484 2098.66 901.908ZM2310.46 894.816 2170.5 982.272 2157.51 961.484 2297.47 874.028ZM2288.81 860.17 2265.49 874.746 2252.5 853.958 2275.82 839.382ZM2267.16 825.523 2243.84 840.099 2230.85 819.311 2254.17 804.735ZM2349.34 870.523 2326.01 885.099 2313.02 864.311 2336.35 849.735ZM2327.69 835.876 2304.36 850.452 2291.37 829.664 2314.7 815.088ZM2306.04 801.23 2282.71 815.806 2269.72 795.018 2293.05 780.442ZM2388.22 846.23 2364.89 860.806 2351.9 840.018 2375.23 825.442ZM2366.57 811.583 2343.24 826.159 2330.25 805.371 2353.58 790.795ZM2344.92 776.936 2321.59 791.512 2308.6 770.724 2331.93 756.148Z" stroke="#FFFFFF" stroke-width="3.75978" stroke-miterlimit="8" fill="#FFFFFF" fill-rule="evenodd"/></g></svg>