<svg width="2842" height="2842" xmlns="http://www.w3.org/2000/svg" xmlns:xlink="http://www.w3.org/1999/xlink" xml:space="preserve" overflow="hidden"><g transform="translate(-203 -225)"><path d="M203 1646C203 861.203 839.203 225 1624 225 2408.8 225 3045 861.203 3045 1646 3045 2430.8 2408.8 3067 1624 3067 839.203 3067 203 2430.8 203 1646Z" fill="#5B9BD5" fill-rule="evenodd"/><path d="M1973.5 1538.02C1973.5 1532.76 1977.76 1528.5 1983.02 1528.5L2088.98 1528.5C2094.24 1528.5 2098.5 1532.76 2098.5 1538.02L2098.5 2127.98C2098.5 2133.24 2094.24 2137.5 2088.98 2137.5L1983.02 2137.5C1977.76 2137.5 1973.5 2133.24 1973.5 2127.98Z" stroke="#FFFFFF" stroke-width="55" stroke-miterlimit="8" fill="none" fill-rule="evenodd"/><path d="M2110.5 1333.94C2110.5 1328.73 2114.73 1324.5 2119.94 1324.5L2225.07 1324.5C2230.29 1324.5 2234.52 1328.73 2234.52 1333.94L2234.52 2128.06C2234.52 2133.27 2230.29 2137.5 2225.07 2137.5L2119.94 2137.5C2114.73 2137.5 2110.5 2133.27 2110.5 2128.06Z" stroke="#FFFFFF" stroke-width="55" stroke-miterlimit="8" fill="none" fill-rule="evenodd"/><path d="M2242.5 1594.96C2242.5 1594.71 2242.71 1594.5 2242.96 1594.5L2366.04 1594.5C2366.29 1594.5 2366.5 1594.71 2366.5 1594.96L2366.5 2137.04C2366.5 2137.29 2366.29 2137.5 2366.04 2137.5L2242.96 2137.5C2242.71 2137.5 2242.5 2137.29 2242.5 2137.04Z" stroke="#FFFFFF" stroke-width="55" stroke-miterlimit="8" fill="none" fill-rule="evenodd"/><path d="M1387.5 644.545C1387.5 642.863 1388.86 641.5 1390.54 641.5L1819.46 641.5C1821.14 641.5 1822.5 642.863 1822.5 644.545L1822.5 2134.46C1822.5 2136.14 1821.14 2137.5 1819.46 2137.5L1390.54 2137.5C1388.86 2137.5 1387.5 2136.14 1387.5 2134.46Z" stroke="#FFFFFF" stroke-width="55" stroke-miterlimit="8" fill="none" fill-rule="evenodd"/><path d="M873.5 1115.5 873.5 2137.22" stroke="#FFFFFF" stroke-width="55" stroke-linecap="round" stroke-miterlimit="8" fill="none" fill-rule="evenodd"/><path d="M1229.5 1115.5 1229.5 2137.22" stroke="#FFFFFF" stroke-width="55" stroke-linecap="round" stroke-miterlimit="8" fill="none" fill-rule="evenodd"/><path d="M0 0 2272.7 0.000360892" stroke="#FFFFFF" stroke-width="59.5833" stroke-linecap="round" stroke-miterlimit="8" fill="none" fill-rule="evenodd" transform="matrix(-1 0 0 1 2760.7 2160)"/><path d="M1682.5 1000.5 1682.5 2111.68" stroke="#FFFFFF" stroke-width="55" stroke-linecap="round" stroke-miterlimit="8" fill="none" fill-rule="evenodd"/><path d="M1527.5 877.5 1527.5 2111.18" stroke="#FFFFFF" stroke-width="55" stroke-linecap="round" stroke-miterlimit="8" fill="none" fill-rule="evenodd"/><path d="M0 0 177.72 0.000360892" stroke="#FFFFFF" stroke-width="55" stroke-linecap="round" stroke-miterlimit="8" fill="none" fill-rule="evenodd" transform="matrix(-1 0 0 1 1699.22 503.5)"/><path d="M0 0 0.000360892 93.347" stroke="#FFFFFF" stroke-width="55" stroke-linecap="round" stroke-miterlimit="8" fill="none" fill-rule="evenodd" transform="matrix(1 0 0 -1 1521.5 596.847)"/><rect x="958" y="1157" width="62.9999" height="68.0001" fill="#FFFFFF"/><rect x="1077" y="1157" width="62.9999" height="68.0001" fill="#FFFFFF"/><rect x="958" y="1279" width="62.9999" height="68.9998" fill="#FFFFFF"/><rect x="1077" y="1279" width="62.9999" height="68.9998" fill="#FFFFFF"/><rect x="958" y="1400" width="62.9999" height="68.0001" fill="#FFFFFF"/><rect x="1077" y="1400" width="62.9999" height="68.0001" fill="#FFFFFF"/><rect x="958" y="1524" width="62.9999" height="69.0001" fill="#FFFFFF"/><rect x="1077" y="1524" width="62.9999" height="69.0001" fill="#FFFFFF"/><rect x="958" y="1646" width="62.9999" height="69.0001" fill="#FFFFFF"/><rect x="1077" y="1646" width="62.9999" height="69.0001" fill="#FFFFFF"/><rect x="958" y="1767" width="62.9999" height="69.0001" fill="#FFFFFF"/><rect x="1077" y="1767" width="62.9999" height="69.0001" fill="#FFFFFF"/><rect x="958" y="1887" width="62.9999" height="68.0001" fill="#FFFFFF"/><rect x="1077" y="1887" width="62.9999" height="68.0001" fill="#FFFFFF"/><rect x="958" y="2007" width="62.9999" height="68.9996" fill="#FFFFFF"/><rect x="1077" y="2007" width="62.9999" height="68.9996" fill="#FFFFFF"/><rect x="1487" y="726" width="76" height="69.0001" fill="#FFFFFF"/><rect x="1644" y="726" width="76" height="69.0001" fill="#FFFFFF"/><rect x="1644" y="844" width="76" height="69.0001" fill="#FFFFFF"/><text fill="#FFFFFF" font-family="Tenorite Display,Tenorite Display_MSFontService,sans-serif" font-weight="700" font-size="303" transform="matrix(1 0 0 1 696.911 2437)">WERTHEIMER</text><text fill="#FFFFFF" font-family="Tenorite Display,Tenorite Display_MSFontService,sans-serif" font-weight="700" font-size="202" transform="matrix(1 0 0 1 794.101 2674)">DIGITAL SERVICES</text><path d="M1985.5 836.5C1985.5 728.804 2072.8 641.5 2180.5 641.5 2288.2 641.5 2375.5 728.804 2375.5 836.5 2375.5 944.196 2288.2 1031.5 2180.5 1031.5 2072.8 1031.5 1985.5 944.196 1985.5 836.5Z" stroke="#FFFFFF" stroke-width="4.58333" stroke-miterlimit="8" fill="#FFFFFF" fill-rule="evenodd"/><path d="M2119.61 1018.55 2096.25 1033.14 2109.26 1053.94 2132.62 1039.35ZM2158.54 994.246 2135.18 1008.83 2148.19 1029.63 2171.54 1015.05ZM2097.93 983.886 2074.58 998.471 2087.58 1019.27 2110.94 1004.69ZM2136.86 959.578 2113.5 974.163 2126.51 994.963 2149.86 980.378ZM2076.26 949.218 2052.9 963.803 2065.91 984.604 2089.26 970.019ZM2175.79 935.27 2152.43 949.855 2165.44 970.656 2188.79 956.071ZM2115.18 924.91 2091.83 939.495 2104.83 960.296 2128.19 945.711ZM2214.71 910.962 2191.36 925.547 2204.36 946.347 2227.72 931.762ZM2154.11 900.602 2130.75 915.187 2143.76 935.987 2167.11 921.403ZM2314.24 897.013 2174.11 984.522 2187.11 1005.32 2327.25 917.814ZM2253.64 886.654 2230.28 901.239 2243.29 922.039 2266.64 907.454ZM2193.03 876.294 2169.68 890.879 2182.69 911.679 2206.04 897.095ZM2353.17 872.705 2329.81 887.29 2342.82 908.091 2366.17 893.506ZM2292.56 862.345 2269.21 876.93 2282.22 897.731 2305.57 883.146ZM2231.96 851.986 2208.61 866.571 2221.61 887.371 2244.97 872.787ZM2392.1 848.397 2368.74 862.982 2381.75 883.783 2405.1 869.198ZM2331.49 838.038 2308.14 852.622 2321.14 873.423 2344.5 858.838ZM2270.89 827.678 2247.53 842.263 2260.54 863.063 2283.89 848.478ZM2370.42 813.729 2347.06 828.314 2360.07 849.115 2383.42 834.53ZM2309.81 803.37 2286.46 817.954 2299.46 838.755 2322.82 824.17ZM2348.74 779.061 2325.39 793.646 2338.39 814.447 2361.75 799.862ZM2362.69 742.257C2367.07 743.007 2370.98 745.385 2373.38 749.214L2442.75 860.152C2447.53 867.81 2444.45 878.372 2435.85 883.742L2108.86 1087.93C2100.26 1093.3 2089.41 1091.44 2084.62 1083.79L2015.25 972.849C2010.47 965.19 2013.56 954.629 2022.15 949.259L2349.14 745.071C2353.44 742.386 2358.3 741.507 2362.69 742.257Z" fill="#5B9BD5" fill-rule="evenodd"/></g></svg>